<svg data-v-5f19e91b="" xmlns="http://www.w3.org/2000/svg" width="303" height="60" viewBox="0 0 303 60"><!----> <!----> <!----> <g data-v-5f19e91b="" id="e1767097-3b0b-f0a7-1200-73c44d5801fc" fill="white" transform="matrix(4.285714285714286,0,0,4.285714285714286,85.73090173516955,-7.350608587265015)"><path d="M2.84 2.80L1.12 12.60L3.78 12.60C4.84 12.60 5.76 12.32 6.52 11.75C7.28 11.18 7.66 10.38 7.66 9.35C7.66 8.27 7.06 7.58 5.87 7.28C7.22 6.97 7.90 6.14 7.90 4.79C7.90 4.16 7.66 3.67 7.20 3.32C6.73 2.97 6.07 2.80 5.22 2.80ZM3.37 6.72L3.86 3.92L5.03 3.92C6.13 3.92 6.68 4.28 6.68 5.01C6.68 5.58 6.49 6.01 6.12 6.29C5.74 6.58 5.22 6.72 4.54 6.72ZM3.18 7.84L4.62 7.84C5.19 7.84 5.64 7.96 5.97 8.21C6.30 8.46 6.47 8.82 6.47 9.28C6.47 9.98 6.23 10.52 5.75 10.91C5.28 11.29 4.69 11.48 3.98 11.48L2.53 11.48ZM13.30 10.19C13.20 10.63 12.97 10.99 12.62 11.27C12.27 11.55 11.86 11.69 11.40 11.69C11.00 11.69 10.71 11.62 10.52 11.47C10.33 11.33 10.23 11.08 10.23 10.72C10.23 10.66 10.26 10.44 10.32 10.08L11.00 6.16L9.88 6.16L9.17 10.22C9.12 10.50 9.10 10.73 9.10 10.91C9.10 11.50 9.26 11.96 9.58 12.27C9.91 12.58 10.36 12.74 10.93 12.74C11.74 12.74 12.44 12.40 13.03 11.73L12.88 12.60L14 12.60L15.13 6.16L14.01 6.16ZM16.18 6.16L17.65 11.61L15.13 15.68L16.46 15.68L22.34 6.16L21.01 6.16L18.49 10.53L17.37 6.16ZM24.09 8.57C24.20 8.13 24.42 7.77 24.77 7.49C25.12 7.21 25.53 7.07 26.00 7.07C26.39 7.07 26.68 7.14 26.87 7.29C27.05 7.43 27.15 7.68 27.15 8.04C27.15 8.16 27.12 8.37 27.08 8.68L26.39 12.60L27.51 12.60L28.22 8.54C28.27 8.26 28.29 8.03 28.29 7.85C28.29 7.26 28.13 6.80 27.81 6.49C27.49 6.18 27.04 6.02 26.46 6.02C25.66 6.02 24.96 6.36 24.36 7.03L24.51 6.16L23.39 6.16L22.26 12.60L23.38 12.60ZM30.55 9.44L29.43 10.04C29.60 10.85 29.97 11.50 30.54 12.00C31.12 12.49 31.80 12.74 32.59 12.74C33.64 12.74 34.46 12.47 35.07 11.93C35.68 11.40 35.98 10.61 35.98 9.58C35.98 9.21 35.92 8.88 35.80 8.59C35.68 8.29 35.51 8.05 35.29 7.85C35.07 7.66 34.86 7.50 34.66 7.38C34.46 7.27 34.23 7.16 33.96 7.06C33.34 6.81 32.86 6.56 32.52 6.29C32.17 6.03 32.00 5.69 32.00 5.29C32.00 4.80 32.17 4.42 32.51 4.17C32.84 3.92 33.28 3.79 33.81 3.79C34.36 3.79 34.77 3.92 35.05 4.19C35.32 4.45 35.55 4.82 35.71 5.31L36.72 4.76C36.60 4.20 36.30 3.71 35.82 3.29C35.34 2.87 34.73 2.66 33.99 2.66C33.04 2.66 32.26 2.90 31.66 3.39C31.06 3.88 30.76 4.55 30.76 5.39C30.76 6.02 30.96 6.54 31.37 6.95C31.77 7.36 32.24 7.66 32.77 7.87C33.38 8.10 33.85 8.35 34.20 8.62C34.54 8.89 34.71 9.26 34.71 9.72C34.71 10.30 34.52 10.77 34.16 11.11C33.80 11.45 33.32 11.62 32.72 11.62C32.19 11.62 31.74 11.43 31.37 11.05C31.00 10.66 30.73 10.13 30.55 9.44ZM42.34 8.71L38.44 8.71C38.59 8.21 38.89 7.80 39.33 7.48C39.76 7.16 40.25 7.00 40.77 7.00C41.21 7.00 41.58 7.13 41.89 7.38C42.21 7.64 42.36 7.99 42.36 8.43C42.36 8.48 42.35 8.58 42.34 8.71ZM38.25 9.66L43.32 9.66C43.41 9.29 43.46 8.91 43.46 8.53C43.46 7.82 43.22 7.22 42.73 6.74C42.25 6.26 41.65 6.02 40.94 6.02C39.95 6.02 39.11 6.33 38.44 6.95C37.76 7.57 37.33 8.38 37.16 9.38C37.11 9.66 37.09 9.90 37.09 10.11C37.09 10.90 37.32 11.54 37.78 12.02C38.24 12.50 38.87 12.74 39.66 12.74C40.44 12.74 41.07 12.60 41.55 12.33C42.04 12.06 42.51 11.65 42.97 11.10L42.13 10.47C41.47 11.28 40.71 11.69 39.84 11.69C38.77 11.69 38.23 11.13 38.23 10.00C38.23 9.85 38.24 9.73 38.25 9.66ZM46.28 1.68L44.35 12.60L45.47 12.60L47.40 1.68ZM49.50 1.68L47.57 12.60L48.69 12.60L50.62 1.68Z"></path></g> <!----> <g data-v-5f19e91b="" id="02118c36-1aa2-9463-9e56-1601b495b553" transform="matrix(0.8144444783528646,0,0,0.8144444783528646,-0.9500040025182273,-6.309280863232075)" stroke="none" fill="white"><path d="M6.9,70.8h22.6l0,0L29.1,72l0,0v-0.1l-0.2,0.7H8.3l0,0H8.2c-2.5,0-4.5,2-4.5,4.5s2,4.5,4.5,4.5s4.5-2,4.5-4.5  c0-0.6-0.1-1.1-0.3-1.6h15.5c-0.2,0.5-0.3,1-0.3,1.6c0,2.5,2,4.5,4.5,4.5s4.5-2,4.5-4.5c0-2.4-2-4.5-4.5-4.5H32l8-23.3h2.9  c0.5,0.7,1.3,1.3,2.3,1.3c0.4,0,0.8-0.1,1.2-0.3c1.4,1,3.1,1.4,4.9,1.1l0.2,1.1l6.3-1.3v18.7c-0.1,0-0.1,0-0.1,0  c-3.4,0-6.3,2.9-6.4,6.4v3.9h4.5h13h9.4l0,0l0,0V57.9c0.3,0.2,0.7,0.3,1.1,0.3h6.5c1.4,0,2.5-1.1,2.5-2.5V27.8  c0-1.4-1.1-2.5-2.5-2.5H81c0.4-2.3,0.2-4.8-0.6-7.2c-1.3-3.6-4-6.6-7.5-8.3c-2.1-1-4.3-1.5-6.6-1.5c-5.5,0-10.5,3.1-12.9,8  c-1.7,3.4-1.9,7.3-0.6,11c1.2,3.4,3.5,6.1,6.6,7.9c-0.3,0.4-0.5,0.8-0.7,1.2c-0.6,0.7-0.8,4.4-0.8,5.6l-8.2,1.6l0.2,0.9l-3.7,0.8  c-0.3-0.1-0.6-0.2-1-0.2c-1,0-1.8,0.4-2.3,1.3H39c-0.1,0-0.1,0-0.2,0c-0.6,0.1-1,0.5-1.2,1L36,52l0,0H1.7L2,52.9l4.8,17.3l0.1,0.5  V70.8z M59.8,37L59.8,37c0.2-0.4,0.5-0.8,0.7-1.2c2,0.9,4.1,1.4,6.3,1.4l0,0c2.9,0,5.6-0.8,7.9-2.3c1.3,1.7,2.1,3.8,2.1,6v35h-8.1  c-0.3-3-2.6-5.5-5.5-5.9V59.1h-1.1v10.8c-0.7,0-1.4,0.1-2.1,0.4c-0.3-0.1-0.6-0.2-0.9-0.3V50.9l6.1-1.2c2.4-0.5,4-2.9,3.5-5.3  s-2.9-4-5.3-3.5l-4.1,0.8C59.4,40.1,59.6,37.6,59.8,37z M61.7,11.1c1.5,0.7,6.4,3.4,7.7,6.8V18c0.1,0.2,0.1,0.3,0.1,0.3  c0.2,0.8,0.3,2.4-0.9,5c-2,4-6.1,6.6-10.5,6.6c-1,0-1.9-0.1-2.8-0.3c-0.5-0.8-1-1.7-1.3-2.7c-1.2-3.3-1-6.9,0.5-10  c1.4-2.8,3.7-4.9,6.4-6.1C61.4,11,61.7,11.2,61.7,11.1z M78.5,28.7c-0.8,1.8-2.1,3.3-3.6,4.5c-0.2,0.2-0.3,0.3-0.5,0.4  c0,0.1-0.1,0.1-0.1,0.1c-0.1,0.1-0.3,0.2-0.5,0.3c-2.1,1.3-4.5,2-7,2c-2.1,0-4.1-0.5-6-1.4c-0.2-0.1-0.5-0.3-0.7-0.4  c-1.7-1-3.1-2.2-4.2-3.7c0.7,0.1,1.5,0.2,2.2,0.2c4.7,0,9-2.8,11.1-7c1.3-2.6,1.2-4.5,1-5.5c0,0,0-0.1-0.1-0.3v-0.1  c-0.5-1.2-2.1-4.3-8.1-7.2c0,0-0.1,0-0.2-0.1c1.4-0.5,2.9-0.8,4.5-0.8c2.1,0,4.1,0.5,6,1.4c3.2,1.6,5.6,4.3,6.8,7.6  C80.3,22,80.1,25.5,78.5,28.7z M78.1,31.8c0.6-0.8,1.2-1.6,1.6-2.5c0.4-0.9,0.8-1.7,1-2.6h5.1c0.6,0,1.1,0.5,1.1,1.1v27.9  c0,0.6-0.5,1.1-1.1,1.1h-6.6c-0.6,0-1.1-0.5-1.1-1.1V31.8L78.1,31.8z M76.9,33.1L76.9,33.1l-0.1,2.6c-0.3-0.6-0.6-1.1-1-1.6  C76.2,33.8,76.5,33.5,76.9,33.1z M57.2,77.2h6.9l0,0h12.7l0,0v1.7H57.2V77.2z M57.7,75.9h-0.6c0-0.7,0.2-1.3,0.5-1.8  c0.3-0.7,0.7-1.2,1.3-1.7c0.3-0.2,0.6-0.4,0.9-0.6c0.5-0.2,1-0.4,1.6-0.5c0.1-0.1,0.3-0.1,0.5-0.1c0.1,0,0.1,0,0.2,0  c0.2,0,0.3,0,0.5,0s0.3,0.1,0.5,0.1c2.1,0.4,3.8,2.3,4.1,4.5H64h-0.8h-0.5l0,0H62h-3l0,0L57.7,75.9L57.7,75.9z M52.8,77.2h2.9v1.7  h-2.9V77.2z M58.3,71.2c-0.2,0.1-0.4,0.3-0.6,0.5c-1.1,1.1-1.8,2.5-2,4.1h-3.1c0.4-2.6,2.5-4.6,5.1-4.6C57.7,71.2,58,71.2,58.3,71.2  z M51.3,44.7l8-1.6l0,0l0,0l4.5-0.9c1.7-0.3,3.4,0.8,3.7,2.5c0.3,1.7-0.8,3.4-2.5,3.7l-12.5,2.5L51.3,44.7z M45.3,47.1l4.2-0.9  l0.9,4.1C48.2,50.3,46.2,49.1,45.3,47.1z M9.7,77.1c0,0.9-0.7,1.6-1.6,1.6S6.5,78,6.5,77.1s0.7-1.6,1.6-1.6l0,0c0,0,0.1,0,0.2,0l0,0  C9.2,75.6,9.8,76.3,9.7,77.1z M21.8,69.3l0.2-4.9h5l-0.9,4.9H21.8z M21.7,64.2h-5l-0.3-5.1h5.5L21.7,64.2z M16.5,64.2h-4.9l-0.8-5.1  h5.4L16.5,64.2z M16.8,64.4h4.9l-0.2,4.9H17L16.8,64.4z M12.4,69.3l-0.7-4.9h4.8l0.3,4.9H12.4z M6.7,64.4h4.7l0.7,4.9H8L6.7,64.4z   M5.2,59.1h5.4l0.8,5.1H6.6L5.2,59.1z M9.6,53.5l0.8,5.1H5l-1.4-5.1H9.6z M16.2,58.6h-5.4L10,53.5h5.9L16.2,58.6z M22.2,53.5  L22,58.6h-5.5l-0.3-5.1H22.2z M22.3,59.1H28l-1,5.1h-5L22.3,59.1z M28.9,53.5L28,58.6h-5.8l0.2-5.1H28.9z M33.7,58.6h-5.4l0.9-5.1  h6.3L33.7,58.6z M31.9,64.2h-4.5l0.9-5.1h5.3L31.9,64.2z M30.4,77.1c0-0.9,0.7-1.6,1.6-1.6c0.9,0,1.6,0.7,1.6,1.6s-0.7,1.6-1.6,1.6  C31.1,78.7,30.4,78,30.4,77.1z M26.4,69.3l0.9-4.9h4.4L30,69.3H26.4z M85.1,31.2c0.4,0,0.7,0.3,0.7,0.7s-0.3,0.7-0.7,0.7H80  c-0.4,0-0.7-0.3-0.7-0.7s0.3-0.7,0.7-0.7H85.1z M80,33.3h5.1c0.4,0,0.7,0.3,0.7,0.7s-0.3,0.7-0.7,0.7H80c-0.4,0-0.7-0.3-0.7-0.7  S79.6,33.3,80,33.3z M80,35.3h5.1c0.4,0,0.7,0.3,0.7,0.7s-0.3,0.7-0.7,0.7H80c-0.4,0-0.7-0.3-0.7-0.7C79.3,35.7,79.6,35.4,80,35.3z"></path></g></svg>